<svg width="34" height="34" viewBox="0 0 34 34" fill="none" xmlns="http://www.w3.org/2000/svg">
<rect width="34" height="34" rx="17" fill="#414BBC"/>
<path d="M15 20.6602V22.2862C14.9962 22.6288 14.9045 22.9647 14.7336 23.2617C14.5627 23.5586 14.3183 23.8067 14.024 23.9822C13.3991 24.445 12.8908 25.0471 12.5395 25.7408C12.1881 26.4345 12.0034 27.2006 12 27.9782" stroke="white" stroke-width="2" stroke-linecap="round" stroke-linejoin="round"/>
<path d="M19 20.6602V22.2862C19.0038 22.6288 19.0955 22.9647 19.2664 23.2617C19.4373 23.5586 19.6817 23.8067 19.976 23.9822C20.6009 24.445 21.1092 25.0471 21.4605 25.7408C21.8119 26.4345 21.9966 27.2006 22 27.9782" stroke="white" stroke-width="2" stroke-linecap="round" stroke-linejoin="round"/>
<path d="M23 15H24.5C25.163 15 25.7989 14.7366 26.2678 14.2678C26.7366 13.7989 27 13.163 27 12.5C27 11.837 26.7366 11.2011 26.2678 10.7322C25.7989 10.2634 25.163 10 24.5 10H23" stroke="white" stroke-width="2" stroke-linecap="round" stroke-linejoin="round"/>
<path d="M9 28H25" stroke="white" stroke-width="2" stroke-linecap="round" stroke-linejoin="round"/>
<path d="M11 15C11 16.5913 11.6321 18.1174 12.7574 19.2426C13.8826 20.3679 15.4087 21 17 21C18.5913 21 20.1174 20.3679 21.2426 19.2426C22.3679 18.1174 23 16.5913 23 15V9C23 8.73478 22.8946 8.48043 22.7071 8.29289C22.5196 8.10536 22.2652 8 22 8H12C11.7348 8 11.4804 8.10536 11.2929 8.29289C11.1054 8.48043 11 8.73478 11 9V15Z" stroke="white" stroke-width="2" stroke-linecap="round" stroke-linejoin="round"/>
<path d="M11 15H9.5C8.83696 15 8.20107 14.7366 7.73223 14.2678C7.26339 13.7989 7 13.163 7 12.5C7 11.837 7.26339 11.2011 7.73223 10.7322C8.20107 10.2634 8.83696 10 9.5 10H11" stroke="white" stroke-width="2" stroke-linecap="round" stroke-linejoin="round"/>
</svg>
